PathFileType	4	(X/Y/Z)	C:\Users\Basilio\Documents\Thesis Gigler\squatting_fais\c3dfiles\076\SLS_back_pre5\markers_experimental.trc
DataRate	CameraRate	NumFrames	NumMarkers	Units	OrigDataRate	OrigDataStartFrame	OrigNumFrames
200.000000	200.000000	4	61	mm	200.000000	394	1578
Frame#	Time	FHD			LBHD			RBHD			C7			T10			CLAV			LSHO			LUUPA			LMUPA			LDUPA			LLEP			LMEP			LRAD			LUL			LRFIN			RSHO			RUPA1			RMUPA			RDUPA			RLEP			RMEP			RRAD			RUL			RUFIN			LASI			RASI			USACR			LSACR			RSACR			LTHI1			LTHI2			LTHI3			LTHI4			LLFC			LMFC			LTIB1			LTIB2			LTIB3			LTIB4			LLMAL			LMMAL			LHEE			LMT1			LMT2			LMT5			RTHI			RTHI2			RTHI3			RTHI4			RLFC			RMFC			RTIB1			RTIB2			RTIB3			RTIB4			RLMAL			RMMAL			RHEE			RMT1			RMT2			RMT5			
		X1	Y1	Z1	X2	Y2	Z2	X3	Y3	Z3	X4	Y4	Z4	X5	Y5	Z5	X6	Y6	Z6	X7	Y7	Z7	X8	Y8	Z8	X9	Y9	Z9	X10	Y10	Z10	X11	Y11	Z11	X12	Y12	Z12	X13	Y13	Z13	X14	Y14	Z14	X15	Y15	Z15	X16	Y16	Z16	X17	Y17	Z17	X18	Y18	Z18	X19	Y19	Z19	X20	Y20	Z20	X21	Y21	Z21	X22	Y22	Z22	X23	Y23	Z23	X24	Y24	Z24	X25	Y25	Z25	X26	Y26	Z26	X27	Y27	Z27	X28	Y28	Z28	X29	Y29	Z29	X30	Y30	Z30	X31	Y31	Z31	X32	Y32	Z32	X33	Y33	Z33	X34	Y34	Z34	X35	Y35	Z35	X36	Y36	Z36	X37	Y37	Z37	X38	Y38	Z38	X39	Y39	Z39	X40	Y40	Z40	X41	Y41	Z41	X42	Y42	Z42	X43	Y43	Z43	X44	Y44	Z44	X45	Y45	Z45	X46	Y46	Z46	X47	Y47	Z47	X48	Y48	Z48	X49	Y49	Z49	X50	Y50	Z50	X51	Y51	Z51	X52	Y52	Z52	X53	Y53	Z53	X54	Y54	Z54	X55	Y55	Z55	X56	Y56	Z56	X57	Y57	Z57	X58	Y58	Z58	X59	Y59	Z59	X60	Y60	Z60	X61	Y61	Z61	

395	1.97	-162.5993194580078	1625.5107421875	-1028.314697265625	-306.1600036621094	1557.044067382813	-1119.108642578125	-288.2105712890626	1564.2421875	-968.466979980469	-355.4504089355469	1446.773193359375	-1037.685913085938	-422.7296752929689	1136.398559570313	-1038.403686523438	-230.5535583496094	1356.656860351563	-1043.016235351563	-300.7789001464844	1394.036743164063	-1204.916259765625	-229.8930358886719	1256.421020507813	-1316.478881835938	-181.8654022216797	1254.843994140625	-1303.011352539063	-187.3655700683594	1212.564819335938	-1348.206420898438	-158.0103454589844	1167.908569335938	-1369.606201171875	-158.2053527832032	1114.062377929688	-1302.940795898438	83.00342559814455	1151.030639648438	-1301.811767578125	86.8822708129883	1137.464111328125	-1365.365844726563	162.0419464111328	1168.637573242188	-1304.353149414063	-287.1994323730469	1389.963745117188	-884.1926269531252	-224.7346801757813	1244.309448242188	-771.1905517578127	-175.9560241699219	1253.569213867188	-774.4864501953127	-176.2836456298828	1197.782836914063	-749.7111816406251	-119.9266357421875	1161.412963867188	-733.0015869140626	-129.642578125	1115.781372070313	-799.9866943359377	109.9569854736328	1095.506103515625	-810.8571777343752	108.6879577636719	1086.80126953125	-744.1414184570314	187.6552276611328	1087.058837890625	-803.3686523437502	-276.1716613769532	936.6065673828127	-1133.364013671875	-274.5636291503907	946.8521118164065	-918.5276489257815	-436.702850341797	1024.927734375	-1028.612060546875	-447.2618408203126	995.7039794921877	-1054.899780273438	-447.817596435547	997.5260009765627	-997.7635498046877	-355.2358703613282	780.8385009765627	-1188.705200195313	-322.9674377441407	702.5923461914064	-1181.132202148438	-273.4374084472657	707.8297729492189	-1172.939086914063	-349.3108520507813	651.4725341796876	-1159.50048828125	-334.2521362304688	494.2474060058595	-1120.51513671875	-303.5079345703126	501.5225524902345	-1004.921691894531	-304.5985412597657	356.6770629882813	-1034.276489257813	-328.2045898437501	296.6857299804688	-1095.194702148438	-299.5862426757813	302.7230529785157	-1057.430541992188	-319.3477172851563	231.8267364501954	-1016.641540527344	-384.1857910156251	107.3683242797852	-1055.010009765625	-356.1004028320313	122.6811065673828	-977.0941162109377	-441.2203063964845	96.7966232299805	-1006.935729980469	-239.9636535644532	51.54238891601564	-992.4766845703127	-235.0320434570313	49.99363708496095	-1031.570434570313	-259.9487915039063	44.72346496582032	-1081.785888671875	-276.6026000976563	722.6604614257814	-825.4335937500002	-218.0677947998047	685.6500854492189	-821.1294555664065	-187.9237213134766	698.1007690429689	-832.5220947265627	-218.3732299804688	601.6086425781251	-829.857116699219	-208.7429809570313	562.5279541015626	-837.998229980469	-185.7100677490235	548.9339599609376	-953.5255126953127	-291.5609436035157	474.6986694335939	-873.821472167969	-390.8103942871095	519.7821655273439	-868.2091064453127	-378.9277038574219	475.085418701172	-875.4638671875002	-411.6297302246095	449.9284057617189	-918.1648559570315	-564.3659667968751	468.9974670410157	-913.7166137695315	-527.8662109375001	452.5377197265626	-989.9866943359377	-587.5638427734376	522.3621826171876	-962.5314941406252	-564.3745727539064	320.9670104980469	-995.561706542969	-570.1155395507814	310.7105102539063	-951.264831542969	-605.7313842773439	331.4256896972657	-903.8973388671877	
396	1.975	-162.2909240722657	1625.145385742188	-1028.214599609375	-305.8446960449219	1556.8876953125	-1119.142333984375	-287.9727783203126	1564.005737304688	-968.5083618164065	-355.1943969726563	1446.646362304688	-1037.554565429688	-422.9111633300782	1136.338012695313	-1038.376708984375	-230.4007568359376	1356.4267578125	-1042.978881835938	-300.4095153808594	1394.135498046875	-1204.692504882813	-228.5932312011719	1257.85400390625	-1316.85302734375	-180.5681915283203	1256.352172851563	-1302.91357421875	-185.3270263671875	1214.044189453125	-1348.144897460938	-156.4893341064453	1170.0146484375	-1369.80517578125	-155.7069854736328	1115.692749023438	-1303.4169921875	85.43662261962892	1153.297241210938	-1302.543579101563	89.50258636474611	1140.132080078125	-1366.083618164063	165.1471557617188	1170.906372070313	-1304.514526367188	-286.8454895019532	1389.851684570313	-884.2361450195315	-223.0250091552735	1244.964233398438	-771.600036621094	-174.4561920166016	1254.465454101563	-775.3341064453127	-174.195541381836	1198.62890625	-750.3299560546876	-117.4679412841797	1162.790649414063	-733.9764404296876	-127.1360626220703	1117.334838867188	-800.888854980469	112.6644668579102	1097.362426757813	-811.2549438476565	111.2767181396485	1088.592407226563	-744.5181274414064	190.4619293212891	1089.144409179688	-803.4014282226565	-276.6010437011719	936.4229125976565	-1133.16796875	-275.2040710449219	946.629089355469	-918.3186035156252	-437.1564331054689	1025.012573242188	-1028.61767578125	-447.5034790039064	995.6406860351565	-1054.881103515625	-448.4793701171876	997.3628540039065	-997.8000488281252	-355.3158264160157	780.7379150390627	-1188.686401367188	-322.8276367187501	702.5336914062501	-1181.140502929688	-273.4192199707032	707.8984985351564	-1172.664794921875	-349.0549316406251	651.3114013671876	-1159.479736328125	-333.7738342285157	494.2368774414064	-1120.526000976563	-303.4564514160157	501.5133056640626	-1004.827392578125	-304.3861999511719	356.5989990234376	-1034.154907226563	-327.8345336914063	296.6498718261719	-1095.119140625	-299.3157653808594	302.6807861328126	-1057.3349609375	-319.2391357421876	231.8269348144532	-1016.566528320313	-384.1769104003907	107.3822326660157	-1055.015625	-356.1244201660157	122.6161651611328	-977.0688476562502	-441.2100219726564	96.76568603515628	-1006.938049316406	-239.9282531738282	51.5676727294922	-992.4011840820315	-235.0543365478516	50.00487899780275	-1031.576782226563	-259.9346008300782	44.74388504028321	-1081.748168945313	-277.4825744628907	722.2146606445314	-825.5821533203127	-218.9813842773438	685.2803344726564	-821.2174072265627	-188.9474334716797	697.5558471679689	-832.6744384765627	-219.4139251708985	601.0611572265626	-830.2210083007815	-210.0161743164063	561.8554077148439	-838.210876464844	-187.0953369140625	548.3152465820314	-953.8005981445315	-292.8417663574219	474.1482849121095	-874.1555786132815	-391.9973144531251	519.3633422851564	-868.4997558593752	-379.9862670898438	474.4619445800782	-876.320739746094	-412.9926147460939	449.3148803710939	-918.6314697265627	-565.7609863281251	468.3517456054689	-914.0850830078127	-529.1509399414064	452.0303039550782	-990.4454345703127	-588.8069458007814	521.7864379882814	-962.8283691406252	-565.6840820312501	320.3252868652344	-996.0225830078127	-571.3113403320314	309.9709777832032	-951.657409667969	-607.0294799804689	330.5651550292969	-904.2205200195315	
397	1.98	-162.0219421386719	1624.888671875	-1028.119384765625	-305.6107482910157	1556.671020507813	-1119.083251953125	-287.7492675781251	1563.733642578125	-968.4716796875002	-354.8833312988282	1446.510009765625	-1037.504272460938	-423.1333618164064	1136.347412109375	-1038.27783203125	-230.2908630371094	1356.144653320313	-1042.9384765625	-300.3084411621094	1394.260009765625	-1204.556030273438	-227.1353912353516	1259.039306640625	-1316.648193359375	-179.1927185058594	1258.04248046875	-1302.638061523438	-183.8148345947266	1215.45556640625	-1347.977783203125	-153.5418395996094	1172.1337890625	-1370.054931640625	-153.4190368652344	1117.455322265625	-1304.045654296875	87.69956970214845	1155.4111328125	-1303.575317382813	91.34041595458986	1142.653442382813	-1366.88916015625	167.3488006591797	1173.250122070313	-1305.454345703125	-286.4577941894532	1389.722045898438	-884.2944946289065	-221.4084472656251	1245.521728515625	-772.2965087890627	-172.882553100586	1255.203735351563	-775.9300537109377	-172.0828247070313	1199.526611328125	-751.0678100585939	-115.0475082397461	1164.130493164063	-735.0148925781251	-124.6015777587891	1118.58837890625	-801.8758544921877	115.3365936279297	1099.207885742188	-811.6697998046877	113.7505264282227	1090.49462890625	-745.0869750976564	193.0491180419922	1091.061401367188	-803.6321411132815	-277.0752258300782	936.220397949219	-1132.929809570313	-275.8861389160157	946.3816528320315	-918.122741699219	-437.5640258789064	1024.962524414063	-1028.645385742188	-447.884979248047	995.702331542969	-1054.92919921875	-448.983367919922	997.4040527343752	-997.8372192382815	-355.2964477539063	780.611267089844	-1188.724243164063	-322.8076171875001	702.5004272460939	-1181.0703125	-273.3658447265626	707.9650268554689	-1172.437377929688	-349.0147705078126	651.1962280273439	-1159.507202148438	-333.3898010253907	494.1896972656251	-1120.532104492188	-303.4602050781251	501.5153198242189	-1004.72802734375	-304.1469116210938	356.5521850585938	-1034.109130859375	-327.5131225585938	296.5874633789063	-1095.027465820313	-299.1320800781251	302.7460937500001	-1057.350341796875	-319.1240844726563	231.8349304199219	-1016.525390625	-384.1578674316407	107.3960113525391	-1055.016967773438	-356.1111450195313	122.6319274902344	-977.0523681640627	-441.2169189453126	96.79170227050784	-1006.944519042969	-239.9109954833985	51.62562942504884	-992.3803710937502	-234.9846191406251	49.98377609252931	-1031.573608398438	-259.8926696777344	44.76988220214844	-1081.669311523438	-278.3573608398438	721.7644042968751	-825.7086181640627	-220.2052764892579	684.6166381835939	-821.5251464843752	-189.8836059570313	697.0361938476564	-832.8437500000002	-220.6952362060547	600.4552612304689	-830.6021728515627	-211.2710876464844	561.4613647460939	-838.6028442382815	-188.4348907470703	547.8670654296876	-954.1517333984377	-294.0057067871094	473.6289978027345	-874.444519042969	-393.4110107421876	518.6459350585939	-869.0201416015627	-381.6773071289063	473.6795959472657	-876.2307128906252	-414.1996154785157	448.8191833496095	-918.9995117187502	-567.1281127929689	467.6270446777345	-914.534851074219	-530.5391845703126	451.3032836914064	-990.8091430664065	-590.2439575195314	520.9777221679689	-963.2791137695315	-566.9442749023439	319.6039428710938	-996.3545532226565	-572.5583496093751	309.3633117675782	-951.9992675781252	-608.2681274414064	329.9812927246094	-904.585388183594	
398	1.985	-161.7279052734375	1624.61181640625	-1028.076416015625	-305.2724914550782	1556.362548828125	-1119.162231445313	-287.4306640625001	1563.376708984375	-968.4907226562502	-354.5460510253907	1446.394775390625	-1037.422973632813	-423.4240722656251	1136.291625976563	-1038.164672851563	-230.1920013427735	1355.889526367188	-1043.038208007813	-300.0156250000001	1394.285888671875	-1204.33837890625	-225.7328643798829	1260.249633789063	-1316.64892578125	-177.9261474609375	1259.5908203125	-1302.595336914063	-182.1791534423828	1217.25732421875	-1348.169555664063	-152.2312927246094	1174.159912109375	-1370.371826171875	-151.0301971435547	1119.190673828125	-1304.512451171875	90.05781555175783	1157.57666015625	-1304.11279296875	94.09022521972658	1145.157470703125	-1367.754638671875	169.1166687011719	1175.651245117188	-1306.339599609375	-286.0828857421876	1389.550048828125	-884.2959594726565	-219.6852722167969	1246.14990234375	-772.6778564453127	-171.1614532470703	1256.28076171875	-776.3711547851565	-170.0126342773438	1200.472534179688	-751.6580200195314	-112.6800765991211	1165.4052734375	-735.8988647460939	-122.3825454711914	1119.644897460938	-802.4528808593752	118.0793533325196	1100.992309570313	-812.1182250976565	116.268669128418	1092.335571289063	-745.4010009765626	195.8397674560547	1093.32080078125	-803.7558593750002	-277.4434509277344	936.0457763671877	-1132.758056640625	-277.0477600097657	945.8259277343752	-918.3555297851565	-438.0071411132814	1025.03466796875	-1028.613159179688	-448.3098449707032	995.778015136719	-1054.92626953125	-449.3316955566407	997.5471801757815	-997.8557128906252	-355.3109130859376	780.4194946289065	-1188.625610351563	-322.6865844726563	702.4666748046876	-1181.051513671875	-273.3376159667969	708.0142822265626	-1172.261840820313	-348.9320068359376	651.1137084960939	-1159.526489257813	-332.8579711914063	494.0799255371095	-1120.591796875	-303.4864807128907	501.5501403808595	-1004.768981933594	-304.1441345214844	356.6401977539063	-1034.21435546875	-327.3510742187501	296.4709167480469	-1095.142333984375	-298.8846435546876	302.6741027832032	-1057.384765625	-318.9974060058594	231.8070373535157	-1016.519409179688	-384.1704101562501	107.4108123779297	-1055.056884765625	-356.1062011718751	122.6409988403321	-977.0957641601565	-441.396209716797	96.86706542968753	-1007.057739257813	-239.9235229492188	51.58715820312501	-992.400573730469	-234.5548400878907	49.24449920654298	-1031.416381835938	-259.1808471679688	44.70022201538087	-1081.729125976563	-279.4259338378907	721.2053222656251	-825.985290527344	-221.2723846435547	684.0454101562501	-821.8492431640627	-190.830322265625	696.4171142578126	-832.9685058593752	-221.9931030273438	599.9105224609376	-830.9158325195315	-212.5235595703126	560.8737792968751	-839.1128540039065	-189.8128814697266	547.2482910156251	-954.4040527343752	-295.4534606933594	473.0699157714845	-875.037048339844	-394.7132568359376	518.1078491210939	-869.412048339844	-382.7409362792969	473.3081054687501	-876.9036254882815	-415.6189575195314	448.0805969238282	-919.3504638671877	-568.4084472656251	466.9618530273439	-914.8306274414065	-531.6992797851564	450.7587280273439	-991.1433105468752	-591.5097045898439	520.3412475585939	-963.6033935546877	-568.2474975585939	319.0476989746094	-996.7075195312502	-573.7370605468751	308.6848754882813	-952.3276367187502	-609.5215454101564	329.2649536132813	-904.9455566406252	
